<mxfile host="app.diagrams.net" modified="2023-05-28T17:00:30.194Z" agent="Mozilla/5.0 (Windows NT 10.0; Win64; x64) AppleWebKit/537.36 (KHTML, like Gecko) Chrome/113.0.0.0 Safari/537.36" etag="tpUSCal5sR5xQ9sNyd-n" version="21.3.4" type="device">
  <diagram name="Page-1" id="8a8uSf18GncmKpz3h53U">
    <mxGraphModel dx="989" dy="567" grid="1" gridSize="10" guides="1" tooltips="1" connect="1" arrows="1" fold="1" page="1" pageScale="1" pageWidth="827" pageHeight="1169" math="0" shadow="0">
      <root>
        <mxCell id="0" />
        <mxCell id="1" parent="0" />
        <mxCell id="DOtMfXjXethDuWYTmN1W-1" value="" style="ellipse;html=1;shape=startState;fillColor=#000000;strokeColor=#ff0000;" vertex="1" parent="1">
          <mxGeometry x="420" y="120" width="30" height="30" as="geometry" />
        </mxCell>
        <mxCell id="DOtMfXjXethDuWYTmN1W-2" value="" style="edgeStyle=orthogonalEdgeStyle;html=1;verticalAlign=bottom;endArrow=open;endSize=8;strokeColor=#ff0000;rounded=0;" edge="1" source="DOtMfXjXethDuWYTmN1W-1" parent="1">
          <mxGeometry relative="1" as="geometry">
            <mxPoint x="435" y="210" as="targetPoint" />
          </mxGeometry>
        </mxCell>
        <mxCell id="DOtMfXjXethDuWYTmN1W-3" value="Login to Database" style="rounded=1;whiteSpace=wrap;html=1;arcSize=40;fontColor=#000000;fillColor=#ffffc0;strokeColor=#ff0000;" vertex="1" parent="1">
          <mxGeometry x="375" y="220" width="120" height="40" as="geometry" />
        </mxCell>
        <mxCell id="DOtMfXjXethDuWYTmN1W-4" value="" style="edgeStyle=orthogonalEdgeStyle;html=1;verticalAlign=bottom;endArrow=open;endSize=8;strokeColor=#ff0000;rounded=0;" edge="1" source="DOtMfXjXethDuWYTmN1W-3" parent="1">
          <mxGeometry relative="1" as="geometry">
            <mxPoint x="435" y="320" as="targetPoint" />
          </mxGeometry>
        </mxCell>
        <mxCell id="DOtMfXjXethDuWYTmN1W-5" value="Find Unregistered user details" style="rounded=1;whiteSpace=wrap;html=1;arcSize=40;fontColor=#000000;fillColor=#ffffc0;strokeColor=#ff0000;" vertex="1" parent="1">
          <mxGeometry x="375" y="320" width="120" height="40" as="geometry" />
        </mxCell>
        <mxCell id="DOtMfXjXethDuWYTmN1W-6" value="" style="edgeStyle=orthogonalEdgeStyle;html=1;verticalAlign=bottom;endArrow=open;endSize=8;strokeColor=#ff0000;rounded=0;" edge="1" source="DOtMfXjXethDuWYTmN1W-5" parent="1">
          <mxGeometry relative="1" as="geometry">
            <mxPoint x="435" y="420" as="targetPoint" />
          </mxGeometry>
        </mxCell>
        <mxCell id="DOtMfXjXethDuWYTmN1W-7" value="" style="shape=line;html=1;strokeWidth=6;strokeColor=#ff0000;" vertex="1" parent="1">
          <mxGeometry x="340" y="420" width="200" height="10" as="geometry" />
        </mxCell>
        <mxCell id="DOtMfXjXethDuWYTmN1W-8" value="" style="edgeStyle=orthogonalEdgeStyle;html=1;verticalAlign=bottom;endArrow=open;endSize=8;strokeColor=#ff0000;rounded=0;entryX=0.537;entryY=-0.024;entryDx=0;entryDy=0;entryPerimeter=0;" edge="1" parent="1" target="DOtMfXjXethDuWYTmN1W-11">
          <mxGeometry relative="1" as="geometry">
            <mxPoint x="366" y="480" as="targetPoint" />
            <mxPoint x="365" y="430" as="sourcePoint" />
            <Array as="points" />
          </mxGeometry>
        </mxCell>
        <mxCell id="DOtMfXjXethDuWYTmN1W-9" value="Update Details" style="rounded=1;whiteSpace=wrap;html=1;arcSize=40;fontColor=#000000;fillColor=#ffffc0;strokeColor=#ff0000;" vertex="1" parent="1">
          <mxGeometry x="451" y="503" width="120" height="40" as="geometry" />
        </mxCell>
        <mxCell id="DOtMfXjXethDuWYTmN1W-10" value="" style="edgeStyle=orthogonalEdgeStyle;html=1;verticalAlign=bottom;endArrow=open;endSize=8;strokeColor=#ff0000;rounded=0;" edge="1" source="DOtMfXjXethDuWYTmN1W-9" parent="1">
          <mxGeometry relative="1" as="geometry">
            <mxPoint x="511" y="603" as="targetPoint" />
          </mxGeometry>
        </mxCell>
        <mxCell id="DOtMfXjXethDuWYTmN1W-11" value="Add details to Registered Database" style="rounded=1;whiteSpace=wrap;html=1;arcSize=40;fontColor=#000000;fillColor=#ffffc0;strokeColor=#ff0000;" vertex="1" parent="1">
          <mxGeometry x="301" y="503" width="120" height="40" as="geometry" />
        </mxCell>
        <mxCell id="DOtMfXjXethDuWYTmN1W-12" value="" style="edgeStyle=orthogonalEdgeStyle;html=1;verticalAlign=bottom;endArrow=open;endSize=8;strokeColor=#ff0000;rounded=0;" edge="1" source="DOtMfXjXethDuWYTmN1W-11" parent="1">
          <mxGeometry relative="1" as="geometry">
            <mxPoint x="361" y="603" as="targetPoint" />
          </mxGeometry>
        </mxCell>
        <mxCell id="DOtMfXjXethDuWYTmN1W-13" value="" style="edgeStyle=orthogonalEdgeStyle;html=1;verticalAlign=bottom;endArrow=open;endSize=8;strokeColor=#ff0000;rounded=0;exitX=0.839;exitY=0.824;exitDx=0;exitDy=0;exitPerimeter=0;" edge="1" parent="1" source="DOtMfXjXethDuWYTmN1W-7">
          <mxGeometry relative="1" as="geometry">
            <mxPoint x="508" y="500" as="targetPoint" />
            <mxPoint x="365" y="430" as="sourcePoint" />
            <Array as="points" />
          </mxGeometry>
        </mxCell>
        <mxCell id="DOtMfXjXethDuWYTmN1W-14" value="" style="shape=line;html=1;strokeWidth=6;strokeColor=#ff0000;" vertex="1" parent="1">
          <mxGeometry x="340" y="600" width="200" height="10" as="geometry" />
        </mxCell>
        <mxCell id="DOtMfXjXethDuWYTmN1W-15" value="" style="edgeStyle=orthogonalEdgeStyle;html=1;verticalAlign=bottom;endArrow=open;endSize=8;strokeColor=#ff0000;rounded=0;" edge="1" source="DOtMfXjXethDuWYTmN1W-14" parent="1">
          <mxGeometry relative="1" as="geometry">
            <mxPoint x="440" y="680" as="targetPoint" />
          </mxGeometry>
        </mxCell>
        <mxCell id="DOtMfXjXethDuWYTmN1W-16" value="" style="ellipse;html=1;shape=endState;fillColor=#000000;strokeColor=#ff0000;" vertex="1" parent="1">
          <mxGeometry x="425" y="680" width="30" height="30" as="geometry" />
        </mxCell>
        <mxCell id="DOtMfXjXethDuWYTmN1W-17" value="Add to Registered users" style="shape=umlFrame;whiteSpace=wrap;html=1;pointerEvents=0;width=100;height=30;" vertex="1" parent="1">
          <mxGeometry x="260" y="110" width="350" height="620" as="geometry" />
        </mxCell>
      </root>
    </mxGraphModel>
  </diagram>
</mxfile>
